HIERARCHY
ROOT Hips
{
	OFFSET -3.958830 18.904000 13.208200
	CHANNELS 6 Xposition Yposition Zposition Zrotation Yrotation Xrotation 
	JOINT LHipJoint
	{
		OFFSET 0.000000 0.000000 0.000000
		CHANNELS 3 Zrotation Yrotation Xrotation
		JOINT LeftUpLeg
		{
			OFFSET 1.800000 -1.400000 0.085000
			CHANNELS 3 Zrotation Yrotation Xrotation
			JOINT LeftLeg
			{
				OFFSET 2.215000 -6.000000 0.000000
				CHANNELS 3 Zrotation Yrotation Xrotation
				JOINT LeftFoot
				{
					OFFSET 2.500000 -6.900000 0.000000
					CHANNELS 3 Zrotation Yrotation Xrotation
					JOINT LeftToeBase
					{
						OFFSET 0.200000 -0.500000 1.950000
						CHANNELS 3 Zrotation Yrotation Xrotation
						End Site
						{
							OFFSET 0.000000 0.000000 0.000000
						}
					}
				}
			}
		}
	}
	JOINT RHipJoint
	{
		OFFSET 0.000000 0.000000 0.000000
		CHANNELS 3 Zrotation Yrotation Xrotation
		JOINT RightUpLeg
		{
			OFFSET -1.800000 -1.400000 0.085000
			CHANNELS 3 Zrotation Yrotation Xrotation
			JOINT RightLeg
			{
				OFFSET -2.215000 -6.000000 0.000000
				CHANNELS 3 Zrotation Yrotation Xrotation
				JOINT RightFoot
				{
					OFFSET -2.500000 -6.900000 0.000000
					CHANNELS 3 Zrotation Yrotation Xrotation
					JOINT RightToeBase
					{
						OFFSET -0.200000 -0.500000 1.950000
						CHANNELS 3 Zrotation Yrotation Xrotation
						End Site
						{
							OFFSET 0.000000 0.000000 0.000000
						}
					}
				}
			}
		}
	}
	JOINT LowerBack
	{
		OFFSET 0.000000 0.000000 0.000000
		CHANNELS 3 Zrotation Yrotation Xrotation
		JOINT Spine
		{
			OFFSET -0.087000 1.940000 -0.288900
			CHANNELS 3 Zrotation Yrotation Xrotation
			JOINT Spine1
			{
				OFFSET 0.000000 1.950000 0.060000
				CHANNELS 3 Zrotation Yrotation Xrotation
				JOINT Neck
				{
					OFFSET 0.000000 0.000000 0.000000
					CHANNELS 3 Zrotation Yrotation Xrotation
					JOINT Neck1
					{
						OFFSET 0.000000 1.600000 0.340000
						CHANNELS 3 Zrotation Yrotation Xrotation
						JOINT Head
						{
							OFFSET 0.000000 1.667000 -0.240000
							CHANNELS 3 Zrotation Yrotation Xrotation
							End Site
							{
								OFFSET 0.000000 0.000000 0.000000
							}
						}
					}
				}
				JOINT LeftShoulder
				{
					OFFSET 0.000000 0.000000 0.000000
					CHANNELS 3 Zrotation Yrotation Xrotation
					JOINT LeftArm
					{
						OFFSET 2.700000 1.550000 -0.730000
						CHANNELS 3 Zrotation Yrotation Xrotation
						JOINT LeftForeArm
						{
							OFFSET 5.450000 0.000000 0.000000
							CHANNELS 3 Zrotation Yrotation Xrotation
							JOINT LeftHand
							{
								OFFSET 3.450000 0.000000 0.000000
								CHANNELS 3 Zrotation Yrotation Xrotation
								JOINT LeftHandIndex1
								{
									OFFSET 0.750000 0.000000 0.000000
									CHANNELS 3 Zrotation Yrotation Xrotation
									End Site
									{
										OFFSET 0.000000 0.000000 0.000000
									}
								}
							}
						}
					}
				}
				JOINT RightShoulder
				{
					OFFSET 0.000000 0.000000 0.000000
					CHANNELS 3 Zrotation Yrotation Xrotation
					JOINT RightArm
					{
						OFFSET -2.700000 1.550000 -0.730000
						CHANNELS 3 Zrotation Yrotation Xrotation
						JOINT RightForeArm
						{
							OFFSET -5.450000 0.000000 0.000000
							CHANNELS 3 Zrotation Yrotation Xrotation
							JOINT RightHand
							{
								OFFSET -3.450000 0.000000 0.000000
								CHANNELS 3 Zrotation Yrotation Xrotation
								JOINT RightHandIndex1
								{
									OFFSET -0.750000 0.000000 0.000000
									CHANNELS 3 Zrotation Yrotation Xrotation
									End Site
									{
										OFFSET 0.000000 0.000000 0.000000
									}
								}
							}
						}
					}
				}
			}
		}
	}
}
MOTION
Frames: 14
Frame Time: 0.016667
1.122220 17.245800 -1.140120 -5.838041 31.019147 3.678903 -15.258693 12.691897 2.353120 3.374317 -1.740910 -13.522409 -4.041868 4.480491 11.189654 -0.868419 4.041595 3.637053 0.432750 0.085770 -0.058780 18.301723 -10.699263 3.024402 -6.973003 2.601095 -23.376709 4.238866 -2.078351 1.118385 0.364023 -2.995832 3.683388 0.456460 0.981740 0.225380 -4.024439 -0.402352 -6.643125 7.498591 -0.685432 0.409962 -1.089264 -1.729664 10.639912 1.498869 3.768164 -7.648315 7.067114 -10.566012 17.899691 -3.469720 -9.898950 4.045180 -7.789867 -0.735723 1.448143 -22.192912 -5.178016 1.923295 -34.162696 -82.808741 27.087825 -4.273261 3.882189 -0.177610 0.807680 -0.823810 0.453660 5.138523 -2.341913 4.903142 35.404014 2.908715 2.860178 73.708466 73.753258 44.526753 1.883086 -2.124232 -0.373350 0.382090 0.086360 -0.070870 
1.123100 17.239740 -1.135250 -5.401804 31.869833 4.158495 -15.271875 12.675275 2.369109 3.142446 -1.868917 -14.159044 -4.183559 4.535250 11.543900 -0.887749 4.061219 3.640977 0.423720 0.079500 -0.055040 18.289417 -10.665028 3.027851 -7.631455 2.535161 -23.267404 4.489136 -2.074143 0.747255 0.371033 -3.057249 3.666862 0.469100 1.005890 0.220290 -3.988844 -0.454092 -6.639478 6.986583 -0.723403 0.183668 -0.969445 -1.770048 10.816834 1.529362 3.795330 -7.822348 7.238086 -10.999601 17.353186 -4.173730 -9.949420 4.320730 -7.570341 -0.976712 1.672387 -21.378594 -5.043386 2.441137 -41.492162 -83.513673 33.568757 -4.341403 3.855313 -0.200400 0.836460 -0.845380 0.450510 4.833954 -2.090923 4.962137 34.345647 2.948957 3.098819 74.497303 73.978737 45.211182 1.890604 -2.090829 -0.389610 0.402270 0.091680 -0.073830 
1.120380 17.233430 -1.128400 -4.401618 33.264662 4.887175 -15.296789 12.689850 2.418364 2.662054 -2.140235 -15.373065 -4.374475 4.712648 12.805138 -0.909293 4.126674 3.623356 0.396510 0.050630 -0.072520 18.254512 -10.636468 3.002262 -9.120824 2.321249 -23.234581 5.420711 -2.309113 1.277939 0.378012 -3.156606 3.628302 0.467970 1.041430 0.213150 -3.916306 -0.597701 -6.631132 5.857439 -0.749843 0.147847 -0.699908 -1.751413 11.051397 1.413675 3.772860 -8.070365 7.273853 -11.508031 16.996496 -4.466050 -10.420020 4.434960 -7.685368 -1.641137 2.075894 -19.496043 -4.950852 3.319377 -54.077635 -84.626959 44.839497 -4.458898 3.712659 -0.208080 0.857840 -0.867160 0.445470 5.134421 -1.336267 5.009934 31.849420 2.922152 3.239060 75.798472 74.223248 46.367106 1.925786 -1.992052 -0.414450 0.435300 0.115160 -0.071940 
1.120990 17.223180 -1.132060 -3.581675 34.811582 5.640287 -15.304107 12.672191 2.501486 2.240976 -2.607467 -17.300601 -4.597087 5.018672 14.977900 -0.942689 4.273151 3.575760 0.339850 -0.018660 -0.120100 18.233588 -10.660369 2.963679 -10.387767 2.153383 -23.487982 6.338948 -2.679899 2.645732 0.404159 -3.231836 3.606056 0.450830 1.100720 0.193290 -3.907569 -0.627952 -6.642406 5.534556 -0.649233 0.345142 -0.872209 -1.504348 11.209593 1.238445 3.481681 -8.385575 6.995091 -12.315197 16.411887 -4.336620 -11.571870 4.345400 -8.021931 -2.384713 2.539618 -17.930441 -5.349476 4.603640 -70.229396 -86.072720 59.273105 -4.707767 3.099276 -0.197580 0.876480 -0.902950 0.436740 5.712517 -0.274458 5.199534 29.024554 2.451128 3.029597 76.550100 74.585627 47.203057 1.955374 -1.855953 -0.463420 0.497890 0.167840 -0.069570 
1.113760 17.214740 -1.145730 -2.655420 35.980866 6.147745 -15.310544 12.646822 2.651598 2.060954 -3.288096 -19.578096 -5.128086 5.608359 18.267379 -0.934596 4.548740 3.438967 0.303790 -0.100980 -0.120550 18.210693 -10.715572 2.881917 -11.578410 1.963443 -23.997963 7.218242 -3.300528 5.246537 0.396478 -3.252446 3.574198 0.391490 1.065130 0.168350 -3.903433 -0.642024 -6.678628 5.388820 -0.351352 1.270782 -1.024317 -0.962106 10.882705 0.954314 3.163096 -8.554035 6.402521 -13.094244 16.885730 -3.402730 -12.920730 3.399870 -8.362821 -3.744535 2.244691 -17.081067 -4.783117 3.256018 -92.871996 -83.385280 78.192831 -4.897250 1.516214 -0.097300 0.806230 -0.875570 0.408290 6.492845 1.326541 5.896306 25.507935 0.997514 2.302229 80.090601 74.730241 49.840305 2.106135 -1.555129 -0.495540 0.516830 0.201630 -0.098010 
1.098920 17.203420 -1.172330 -1.581663 36.813411 6.695054 -15.335716 12.588040 2.908717 2.068998 -4.215293 -22.318270 -6.216544 6.529751 22.102113 -0.829133 4.963719 3.213584 0.284550 -0.140490 -0.092510 18.177476 -10.703446 2.788566 -12.632352 1.811445 -24.404093 7.838518 -3.901199 7.762200 0.373978 -3.270919 3.530226 0.324140 0.954260 0.144180 -3.836707 -0.768205 -6.803462 5.118679 -0.103776 2.628792 -1.208902 -0.452877 10.470713 0.909182 2.866992 -8.827080 5.715705 -14.021050 17.782081 -2.811710 -13.973400 2.414170 -9.303205 -5.787175 2.195440 -16.117823 -2.323408 0.056852 -111.315578 -78.445086 94.867428 -4.403268 2.121517 -0.016990 0.705960 -0.810440 0.358990 7.426664 3.495892 6.697885 21.392223 -0.668481 1.431257 82.862313 75.152242 52.298952 2.288005 -1.260739 -0.473300 0.474320 0.201680 -0.125170 
1.081170 17.182790 -1.210860 -0.243345 36.885368 7.311251 -15.357505 12.396863 3.298999 2.531790 -5.525526 -25.731618 -8.028469 8.041582 27.019525 -0.694674 5.804076 2.851002 0.273460 -0.187350 -0.053440 18.165054 -10.654094 2.678056 -13.876962 1.708418 -24.839097 8.256490 -4.540864 10.317396 0.328824 -3.322435 3.475714 0.269250 0.871510 0.122680 -3.775291 -0.791219 -7.040157 4.948416 0.255788 4.474042 -2.037101 0.300582 10.202938 1.089629 2.521854 -9.171167 4.912129 -14.653962 18.801865 -1.742460 -15.021410 0.508300 -10.424101 -6.936761 2.800894 -15.065891 -0.408903 -0.688829 -128.393014 -76.117122 111.944500 -4.121225 2.826498 0.105730 0.607270 -0.735680 0.326610 8.113206 5.115532 7.012437 17.511489 -1.690670 0.697873 85.157321 75.281738 54.495761 2.404708 -0.976647 -0.485990 0.482440 0.208040 -0.161250 
1.065620 17.155700 -1.251690 0.769817 37.519646 7.397652 -15.384057 12.199486 3.725692 3.579362 -6.711773 -28.728041 -10.025011 9.744640 31.356526 -0.512593 6.708147 2.462894 0.286510 -0.192400 0.018380 18.148451 -10.631552 2.538478 -14.660847 1.604941 -24.960507 8.238424 -5.210932 13.298780 0.261006 -3.395515 3.415311 0.221420 0.737640 0.092700 -3.734983 -0.781346 -7.333608 5.272503 0.410446 6.959549 -2.847413 0.932644 9.766503 1.409233 2.276726 -9.609136 4.170142 -15.578126 20.106973 -1.088620 -15.788020 -1.918890 -11.663985 -7.884518 3.592867 -15.036285 1.042674 -0.917062 -142.067555 -73.601624 125.110870 -3.972299 3.091870 0.229790 0.486670 -0.632820 0.285850 8.633558 6.543723 7.235514 13.839613 -3.307527 -0.286339 88.550599 75.076210 57.376801 2.539801 -0.669121 -0.474870 0.467550 0.184270 -0.205490 
1.049090 17.117780 -1.309580 1.449526 37.944686 6.698496 -15.390866 11.979314 4.176452 5.468198 -7.670433 -31.329899 -12.609944 11.977742 35.608449 -0.281987 7.851304 2.012882 0.307870 -0.193370 0.097920 18.153540 -10.624920 2.395213 -15.181636 1.576512 -25.210951 7.767349 -5.904105 16.862543 0.175717 -3.513509 3.339406 0.178980 0.617640 0.065130 -3.787307 -0.696467 -7.704276 6.590387 0.109204 10.513447 -4.545635 1.387220 9.060005 1.912912 1.999341 -9.830637 3.186632 -15.916763 22.016214 0.352950 -16.358050 -5.229110 -13.167511 -8.475983 4.328137 -15.229383 3.002419 -1.294870 -153.101527 -70.409105 135.577389 -3.864840 3.177179 0.369480 0.362850 -0.523720 0.252770 9.004933 7.644445 6.984106 10.079609 -4.147613 -1.307796 92.719190 74.332451 61.024918 2.633185 -0.376736 -0.473020 0.472180 0.157990 -0.248390 
1.034210 17.066770 -1.368290 1.170721 37.965513 5.161452 -15.355214 11.740030 4.557145 8.271700 -7.936510 -33.394755 -15.335524 14.376360 38.830887 -0.051194 8.955354 1.589479 0.362730 -0.154900 0.176890 18.204959 -10.652305 2.276015 -14.858838 1.805920 -25.441099 6.863696 -6.437826 20.633821 0.079753 -3.687163 3.238254 0.168330 0.508870 0.055110 -3.993215 -0.435767 -8.047661 9.338326 -0.525150 14.307465 -6.996721 1.824457 8.278277 2.520722 1.563266 -9.838278 2.101734 -15.921092 23.560390 2.188950 -16.715250 -8.674280 -14.719815 -8.736739 4.708925 -15.622582 4.172814 -1.616225 -160.992175 -67.180810 143.304194 -3.770517 3.240555 0.478130 0.251380 -0.428450 0.238180 9.129310 8.441636 6.601333 6.522790 -4.091925 -1.893340 94.533057 73.672006 62.785287 2.653535 -0.307341 -0.454620 0.458720 0.118810 -0.277990 
1.009730 17.002310 -1.422280 1.132456 37.930310 3.936603 -15.354020 11.468481 4.941158 11.281207 -7.928607 -35.429583 -18.138119 17.090658 41.847709 0.203223 10.113941 1.171965 0.401800 -0.111110 0.219960 18.246941 -10.585900 2.163993 -14.571471 2.111357 -25.844478 5.904209 -6.825656 24.008451 0.000703 -3.905292 3.139311 0.172420 0.438110 0.045690 -4.069375 -0.244380 -8.330413 10.843312 -0.957497 17.596832 -8.479014 2.312030 7.709603 3.066826 1.563701 -9.837707 1.853776 -16.119397 24.601846 3.612340 -16.825370 -11.270140 -16.074926 -8.978531 4.937433 -16.538979 4.443431 -1.824831 -166.801425 -63.935693 149.254935 -3.717096 3.274763 0.542480 0.182760 -0.365500 0.228610 9.254316 8.915602 6.335739 3.277405 -4.178478 -2.106790 94.118028 73.435745 62.584263 2.650599 -0.335805 -0.438750 0.452890 0.093860 -0.294090 
0.996070 16.930730 -1.458890 1.137098 38.056477 2.723135 -15.345934 11.205297 5.253013 14.167952 -7.503990 -36.695742 -20.767410 19.839975 44.276204 0.488326 11.135304 0.828564 0.431730 -0.074790 0.257330 18.295608 -10.521007 2.086155 -14.496479 2.456536 -26.151457 5.240979 -7.282238 27.284944 -0.089047 -4.218085 3.012742 0.159370 0.365600 0.046800 -4.164420 -0.004659 -8.573605 12.358417 -1.320435 20.408342 -10.186789 2.891673 7.110837 3.555931 1.719117 -10.044642 1.864585 -16.658702 25.567680 4.485930 -17.016400 -12.766850 -17.446910 -9.520563 5.126219 -17.297515 4.347977 -2.125314 -170.173012 -61.263085 152.635125 -3.662592 3.312300 0.577510 0.125870 -0.307280 0.221870 9.484031 9.524850 6.576006 1.351982 -5.131230 -2.312189 92.689633 73.813214 61.589018 2.685191 -0.359174 -0.401490 0.418250 0.058880 -0.299890 
0.987100 16.853990 -1.484000 1.301720 38.001517 1.972294 -15.348885 10.977433 5.486070 16.766097 -6.802383 -37.591302 -22.462066 22.415274 46.741966 0.738763 12.037978 0.547426 0.455110 -0.034970 0.272310 18.343668 -10.402390 2.048750 -14.541458 2.880901 -26.757280 4.823710 -7.713209 30.222680 -0.168843 -4.545303 2.892614 0.162610 0.332960 0.037880 -4.208620 0.149114 -8.749200 13.201174 -1.628196 22.145362 -11.300187 3.305532 7.115366 3.909483 1.602687 -10.195958 1.521607 -16.729906 26.250162 5.584910 -17.122690 -14.088280 -18.411979 -9.553359 5.335778 -19.670060 4.149501 -2.428546 -173.535641 -58.795979 156.317234 -3.628192 3.320224 0.596050 0.089930 -0.270710 0.227060 9.656389 9.751772 6.696342 -0.242898 -4.839903 -2.084192 87.080139 74.695268 57.429843 2.631930 -0.580140 -0.381220 0.417010 0.033650 -0.292930 
0.981450 16.786080 -1.497770 1.953134 38.093932 1.586093 -15.362432 10.844984 5.609328 18.629810 -6.124669 -37.891050 -22.622765 24.487136 49.700339 0.938866 12.803136 0.311042 0.453830 -0.026160 0.258610 18.370359 -10.313645 2.024445 -14.845609 3.168479 -27.396896 4.167162 -7.963065 32.635230 -0.218140 -4.826557 2.785820 0.159580 0.329040 0.033800 -4.204334 0.236267 -8.848896 13.100122 -1.725267 23.080871 -11.816498 3.568775 7.448632 4.124248 1.397931 -10.226196 1.044391 -16.282338 27.067406 7.038750 -17.212330 -14.867740 -18.933915 -9.354819 5.545004 -23.456763 3.550979 -2.892170 -176.268419 -57.793225 159.758911 -3.617525 3.317254 0.600070 0.072220 -0.261460 0.221490 9.718057 9.859499 6.549129 -0.772674 -3.555357 -2.196293 76.923217 74.536053 49.955454 2.379055 -1.118622 -0.369980 0.418300 0.041080 -0.282350 
